<svg width="339" height="335" viewBox="0 0 339 335" fill="none" xmlns="http://www.w3.org/2000/svg">
<g filter="url(#filter0_i)">
<path d="M230.637 71.8575C250.469 80.2325 270.651 90.9525 275.916 107.2C281.181 123.615 271.88 145.558 265.211 163.815C258.542 182.24 254.681 196.813 248.714 212.055C242.747 227.298 234.498 242.875 221.16 255.103C207.998 267.163 189.57 275.705 170.792 276.208C152.189 276.71 133.235 269.173 109.893 262.473C86.7272 255.773 67.1577 250.795 49.9587 235.218C32.7597 219.473 17.9312 193.128 22.3187 170.013C26.7062 146.73 42.5012 125.96 54.7861 102.342C67.2466 78.725 76.1972 52.0925 94.9757 43.0475C113.93 34.17 142.536 42.88 166.755 50.0825C190.974 57.4525 210.63 63.4825 230.637 71.8575Z" fill="url(#paint0_linear)"/>
</g>
<g clip-path="url(#clip0)">
<path d="M149.709 105.546C159.371 105.546 167.204 98.7624 167.204 90.3949C167.204 82.0275 159.371 75.2444 149.709 75.2444C140.047 75.2444 132.214 82.0275 132.214 90.3949C132.214 98.7624 140.047 105.546 149.709 105.546Z" fill="#FFB8B8"/>
<path d="M136.652 97.9702C136.652 97.9702 139.948 119.488 134.877 121.904C129.806 124.319 165.049 124.539 165.049 124.539C165.049 124.539 157.189 105.875 160.739 100.166L136.652 97.9702Z" fill="#FFB8B8"/>
<path d="M190.784 124.647L187.853 136.206L181.655 160.659L181.47 161.998L179.331 177.502L177.908 187.802L176.954 194.72C171.154 197.302 166.95 199.084 166.95 199.084C166.95 199.084 166.589 197.514 166.006 195.505C161.935 196.562 154.403 198.315 148.02 198.665C150.344 200.909 151.412 203.017 149.964 204.572C145.591 209.262 127.538 199.438 121.224 195.775C121.077 196.652 121.021 197.539 121.058 198.424L116.226 195.206L116.704 187.802L117.51 175.273L118.524 159.561C118.204 158.888 117.937 158.198 117.722 157.495C116.242 152.937 114.446 143.837 113.069 136.206C111.96 130.064 111.127 124.874 110.951 123.77C110.928 123.626 110.916 123.551 110.916 123.551L137.664 113.316C139.565 117.134 148.441 118.281 148.441 118.281C155.795 117.842 161.559 114.484 161.559 114.484L190.784 124.647Z" fill="#D6EFF2"/>
<path d="M168.98 194.693C168.98 194.693 167.847 195.029 166.006 195.505C161.935 196.562 154.403 198.315 148.02 198.666C142.524 198.97 137.88 198.237 137.031 195.132C136.667 193.797 137.183 192.699 138.309 191.797C141.668 189.1 150.442 188.133 157.401 187.802C159.366 187.709 161.183 187.666 162.697 187.649C165.266 187.62 166.95 187.666 166.95 187.666L166.991 187.802L168.98 194.693Z" fill="#A0616A"/>
<path d="M135.155 76.0639L131.884 74.9298C131.884 74.9298 138.724 68.4088 148.24 68.9759L145.563 66.4241C145.563 66.4241 152.106 64.156 158.053 70.1099C161.179 73.2397 164.797 76.9187 167.052 81.063H170.555L169.093 83.851L174.21 86.6389L168.958 86.1382C169.271 87.6649 169.319 89.2235 169.1 90.7625C168.875 92.3019 167.968 93.7054 166.57 94.6766C166.57 94.6766 162.514 87.4047 162.514 86.2706V89.1058C162.514 89.1058 159.242 86.5541 159.242 84.853L157.458 86.8376L156.566 83.7189L145.563 86.8376L147.348 84.286L140.508 85.1365L143.184 82.0178C143.184 82.0178 135.453 85.7035 135.155 88.8223C134.858 91.941 132.595 94.8962 132.595 94.8962C132.595 94.8962 126.531 80.3166 135.155 76.0639Z" fill="#423721"/>
<path d="M209.8 177.784C208.018 179.457 203.602 181.977 198.249 184.705C196.258 185.719 194.138 186.763 191.976 187.802C186.816 190.28 181.413 192.736 176.954 194.72C171.154 197.302 166.95 199.084 166.95 199.084C166.95 199.084 166.589 197.514 166.006 195.505C165.225 192.816 164.05 189.341 162.825 187.802C162.782 187.748 162.739 187.699 162.696 187.649C162.34 187.243 161.98 187.006 161.626 187.006L179.331 177.502L186.982 173.394L181.47 161.999L174.556 147.704L178.729 136.206L182.923 124.647H190.784C190.784 124.647 193.387 129.567 196.715 136.428C197.212 137.454 197.726 138.524 198.249 139.628C205.096 154.05 213.633 174.189 209.8 177.784Z" fill="#D6EFF2"/>
<path d="M149.964 204.572C145.591 209.262 127.538 199.438 121.224 195.775C119.849 194.978 119.031 194.473 119.031 194.473L124.807 187.802L126.637 185.69C126.637 185.69 128.273 186.442 130.693 187.666C130.781 187.711 130.869 187.756 130.959 187.802C133.046 188.863 135.665 190.249 138.308 191.797C141.956 193.933 145.643 196.37 148.02 198.666C150.344 200.909 151.412 203.017 149.964 204.572Z" fill="#A0616A"/>
<path d="M130.693 187.666C130.047 187.663 129.403 187.709 128.766 187.802C123.296 188.615 121.683 192.903 121.224 195.775C121.077 196.652 121.022 197.539 121.058 198.424L116.226 195.206L114.465 194.034C110.228 192.755 106.453 190.482 103.179 187.802C100.339 185.435 97.7915 182.819 95.5777 179.995C93.3727 177.212 91.4071 174.292 89.6966 171.26C89.2194 170.413 88.9628 169.486 88.9451 168.545C88.9275 167.603 89.1491 166.669 89.5943 165.81L95.5777 154.262L104.323 137.384C104.387 136.982 104.458 136.59 104.535 136.206C106.269 127.594 110.916 123.77 110.916 123.77H114.465L116.84 136.206L119.79 151.656L117.722 157.495L112.945 170.979L117.51 175.273L130.693 187.666Z" fill="#D6EFF2"/>
<path d="M134.71 151.668L137.745 154.734C138.872 154.548 140.05 154.329 141.262 154.083L140.391 151.668L142.522 153.821C155.368 151.085 171.291 145.765 171.291 145.765C171.291 145.765 154.101 146.857 141.265 144.428C135.586 143.354 129.743 145.792 127.413 150.404C126.058 153.084 126.271 155.407 131.075 155.407C132.698 155.383 134.317 155.251 135.917 155.012L134.71 151.668Z" fill="#D6EFF2"/>
<path d="M203.888 202.059V203.309C203.889 203.653 203.815 203.993 203.671 204.313C203.608 204.455 203.53 204.593 203.441 204.725C203.157 205.137 202.755 205.478 202.273 205.715C201.791 205.952 201.247 206.077 200.693 206.076H94.4549C93.9009 206.077 93.3564 205.952 92.8746 205.715C92.3929 205.478 91.9906 205.137 91.707 204.725C91.6173 204.593 91.5402 204.455 91.4763 204.313C91.3324 203.993 91.259 203.653 91.2598 203.309V202.059C91.2597 201.695 91.3422 201.336 91.5028 201C91.6633 200.664 91.8986 200.359 92.1954 200.102C92.4921 199.845 92.8443 199.641 93.232 199.502C93.6197 199.363 94.0353 199.292 94.4549 199.292H100.579V198.709C100.579 198.694 100.582 198.679 100.589 198.665C100.595 198.651 100.605 198.638 100.618 198.627C100.63 198.616 100.645 198.608 100.661 198.602C100.677 198.596 100.694 198.593 100.712 198.593H103.907C103.924 198.593 103.942 198.596 103.958 198.602C103.974 198.608 103.989 198.616 104.001 198.627C104.014 198.638 104.023 198.651 104.03 198.665C104.037 198.679 104.04 198.694 104.04 198.709V199.292H106.036V198.709C106.036 198.694 106.04 198.679 106.046 198.665C106.053 198.651 106.063 198.638 106.075 198.627C106.088 198.616 106.102 198.608 106.118 198.602C106.135 198.596 106.152 198.593 106.169 198.593H109.365C109.382 198.593 109.399 198.596 109.416 198.602C109.432 198.608 109.446 198.616 109.459 198.627C109.471 198.638 109.481 198.651 109.488 198.665C109.494 198.679 109.498 198.694 109.498 198.709V199.292H111.496V198.709C111.496 198.694 111.5 198.679 111.506 198.665C111.513 198.651 111.523 198.638 111.535 198.627C111.548 198.616 111.562 198.608 111.578 198.602C111.595 198.596 111.612 198.593 111.629 198.593H114.825C114.842 198.593 114.859 198.596 114.876 198.602C114.892 198.608 114.906 198.616 114.919 198.627C114.931 198.638 114.941 198.651 114.948 198.665C114.954 198.679 114.958 198.694 114.958 198.709V199.292H116.954V198.709C116.954 198.694 116.957 198.679 116.964 198.665C116.971 198.651 116.98 198.638 116.993 198.627C117.005 198.616 117.02 198.608 117.036 198.602C117.052 198.596 117.07 198.593 117.087 198.593H120.282C120.3 198.593 120.317 198.596 120.333 198.602C120.349 198.608 120.364 198.616 120.376 198.627C120.389 198.638 120.399 198.651 120.405 198.665C120.412 198.679 120.415 198.694 120.415 198.709V199.292H122.411V198.709C122.411 198.694 122.415 198.679 122.422 198.665C122.428 198.651 122.438 198.638 122.45 198.627C122.463 198.616 122.478 198.608 122.494 198.602C122.51 198.596 122.527 198.593 122.545 198.593H125.74C125.757 198.593 125.775 198.596 125.791 198.602C125.807 198.608 125.822 198.616 125.834 198.627C125.846 198.638 125.856 198.651 125.863 198.665C125.87 198.679 125.873 198.694 125.873 198.709V199.292H127.871V198.709C127.871 198.694 127.875 198.679 127.882 198.665C127.888 198.651 127.898 198.638 127.91 198.627C127.923 198.616 127.938 198.608 127.954 198.602C127.97 198.596 127.987 198.593 128.005 198.593H131.2C131.217 198.593 131.235 198.596 131.251 198.602C131.267 198.608 131.282 198.616 131.294 198.627C131.306 198.638 131.316 198.651 131.323 198.665C131.33 198.679 131.333 198.694 131.333 198.709V199.292H133.329V198.709C133.329 198.694 133.332 198.679 133.339 198.665C133.346 198.651 133.356 198.638 133.368 198.627C133.38 198.616 133.395 198.608 133.411 198.602C133.427 198.596 133.445 198.593 133.462 198.593H158.49C158.508 198.593 158.525 198.596 158.541 198.602C158.557 198.608 158.572 198.616 158.585 198.627C158.597 198.638 158.607 198.651 158.613 198.665C158.62 198.679 158.624 198.694 158.624 198.709V199.292H160.622V198.709C160.622 198.694 160.625 198.679 160.632 198.665C160.639 198.651 160.649 198.638 160.661 198.627C160.673 198.616 160.688 198.608 160.704 198.602C160.72 198.596 160.738 198.593 160.755 198.593H163.95C163.986 198.594 164.019 198.606 164.044 198.628C164.069 198.649 164.083 198.678 164.084 198.709V199.292H166.08V198.709C166.08 198.694 166.083 198.679 166.09 198.665C166.096 198.651 166.106 198.638 166.119 198.627C166.131 198.616 166.146 198.608 166.162 198.602C166.178 198.596 166.195 198.593 166.213 198.593H169.408C169.425 198.593 169.443 198.596 169.459 198.602C169.475 198.608 169.49 198.616 169.502 198.627C169.515 198.638 169.524 198.651 169.531 198.665C169.538 198.679 169.541 198.694 169.541 198.709V199.292H171.537V198.709C171.537 198.694 171.541 198.679 171.547 198.665C171.554 198.651 171.564 198.638 171.576 198.627C171.589 198.616 171.603 198.608 171.619 198.602C171.636 198.596 171.653 198.593 171.67 198.593H174.866C174.883 198.593 174.9 198.596 174.917 198.602C174.933 198.608 174.947 198.616 174.96 198.627C174.972 198.638 174.982 198.651 174.989 198.665C174.995 198.679 174.999 198.694 174.999 198.709V199.292H176.997V198.709C176.997 198.694 177.001 198.679 177.007 198.665C177.014 198.651 177.024 198.638 177.036 198.627C177.049 198.616 177.063 198.608 177.079 198.602C177.096 198.596 177.113 198.593 177.13 198.593H180.326C180.361 198.594 180.394 198.606 180.418 198.628C180.443 198.649 180.457 198.679 180.456 198.709V199.292H182.455V198.709C182.455 198.694 182.458 198.679 182.465 198.665C182.472 198.651 182.481 198.638 182.494 198.627C182.506 198.616 182.521 198.608 182.537 198.602C182.553 198.596 182.571 198.593 182.588 198.593H185.783C185.801 198.593 185.818 198.596 185.834 198.602C185.85 198.608 185.865 198.616 185.877 198.627C185.89 198.638 185.9 198.651 185.906 198.665C185.913 198.679 185.916 198.694 185.916 198.709V199.292H187.912V198.709C187.912 198.694 187.916 198.679 187.923 198.665C187.929 198.651 187.939 198.638 187.951 198.627C187.964 198.616 187.978 198.608 187.995 198.602C188.011 198.596 188.028 198.593 188.046 198.593H191.241C191.258 198.593 191.276 198.596 191.292 198.602C191.308 198.608 191.323 198.616 191.335 198.627C191.347 198.638 191.357 198.651 191.364 198.665C191.371 198.679 191.374 198.694 191.374 198.709V199.292H200.693C201.112 199.292 201.528 199.363 201.916 199.502C202.303 199.641 202.656 199.845 202.952 200.102C203.249 200.359 203.484 200.664 203.645 201C203.806 201.336 203.888 201.695 203.888 202.059Z" fill="#464646"/>
<path d="M234.78 204.313H60.3934V204.725H234.78V204.313Z" fill="#3F3D56"/>
<path d="M195.334 149.392H155.736V148.685H137.78V149.392H98.0188C97.3085 149.392 96.6272 149.636 96.1249 150.071C95.6225 150.506 95.3403 151.096 95.3403 151.711V198.668C95.3403 199.283 95.6225 199.873 96.1248 200.308C96.6272 200.743 97.3085 200.987 98.0188 200.987H195.334C196.044 200.987 196.725 200.743 197.228 200.308C197.73 199.873 198.012 199.283 198.012 198.668V151.711C198.012 151.407 197.943 151.105 197.808 150.824C197.674 150.542 197.476 150.286 197.228 150.071C196.979 149.856 196.684 149.685 196.359 149.568C196.034 149.452 195.685 149.392 195.334 149.392Z" fill="#464646"/>
<path d="M146.754 170.936C150.039 170.936 152.702 168.63 152.702 165.785C152.702 162.941 150.039 160.635 146.754 160.635C143.47 160.635 140.807 162.941 140.807 165.785C140.807 168.63 143.47 170.936 146.754 170.936Z" stroke="#D6EFF2" stroke-width="2" stroke-miterlimit="10"/>
<path d="M144.851 172.79C148.136 172.79 150.799 170.484 150.799 167.64C150.799 164.795 148.136 162.489 144.851 162.489C141.566 162.489 138.903 164.795 138.903 167.64C138.903 170.484 141.566 172.79 144.851 172.79Z" fill="#D6EFF2"/>
<path d="M71.8002 202.231H65.1387V208H71.8002V202.231Z" fill="#D6EFF2"/>
<path d="M67.7567 197.699V204.704H75.8455V197.699H67.7567ZM75.4934 204.399H68.1064V198.004H75.4934V204.399Z" fill="#3F3D56"/>
<path d="M225.965 202.231H219.303V208H225.965V202.231Z" fill="#D6EFF2"/>
<path d="M221.921 197.699V204.704H230.01V197.699H221.921ZM229.658 204.399H222.271V198.004H229.658V204.399Z" fill="#3F3D56"/>
<path d="M81.8275 189.567C82.0495 196.15 77.6082 198.562 72.0344 198.703C71.905 198.706 71.7761 198.708 71.6478 198.709C71.3893 198.711 71.1333 198.707 70.8799 198.698C65.839 198.516 61.8488 196.199 61.6424 190.077C61.4287 183.742 70.509 175.51 71.1902 174.902L71.1914 174.901C71.2173 174.878 71.2306 174.866 71.2306 174.866C71.2306 174.866 81.6055 182.985 81.8275 189.567Z" fill="#464646"/>
<path d="M71.6331 197.705L75.1738 193.145L71.6404 198.196L71.6478 198.709C71.3893 198.711 71.1333 198.707 70.8799 198.698L71.0555 192.102L71.0507 192.051L71.0571 192.042L71.0739 191.418L67.1965 186.543L71.0694 190.952L71.0831 191.084L71.2157 186.101L67.8667 181.046L71.2253 185.225L71.1902 174.902L71.1903 174.867L71.1914 174.901L71.4138 183.037L74.466 179.732L71.4237 183.738L71.4904 188.196L74.2991 183.846L71.5007 188.851L71.5378 191.329L75.6224 185.27L71.5502 192.194L71.6331 197.705Z" fill="#D6EFF2"/>
<path d="M235.992 189.567C236.214 196.15 231.773 198.562 226.199 198.703C226.07 198.706 225.941 198.708 225.812 198.709C225.554 198.711 225.298 198.707 225.044 198.698C220.004 198.516 216.013 196.199 215.807 190.077C215.593 183.742 224.674 175.51 225.355 174.902L225.356 174.901C225.382 174.878 225.395 174.866 225.395 174.866C225.395 174.866 235.77 182.985 235.992 189.567Z" fill="#464646"/>
<path d="M225.798 197.705L229.338 193.145L225.805 198.196L225.812 198.709C225.554 198.711 225.298 198.707 225.045 198.698L225.22 192.102L225.215 192.051L225.222 192.042L225.239 191.418L221.361 186.543L225.234 190.952L225.248 191.084L225.38 186.101L222.031 181.046L225.39 185.225L225.355 174.902L225.355 174.867L225.356 174.901L225.578 183.037L228.631 179.732L225.588 183.738L225.655 188.196L228.464 183.846L225.665 188.851L225.702 191.329L229.787 185.27L225.715 192.194L225.798 197.705Z" fill="#D6EFF2"/>
</g>
<defs>
<filter id="filter0_i" x="21.5402" y="39.2907" width="255.926" height="240.941" filterUnits="userSpaceOnUse" color-interpolation-filters="sRGB">
<feFlood flood-opacity="0" result="BackgroundImageFix"/>
<feBlend mode="normal" in="SourceGraphic" in2="BackgroundImageFix" result="shape"/>
<feColorMatrix in="SourceAlpha" type="matrix" values="0 0 0 0 0 0 0 0 0 0 0 0 0 0 0 0 0 0 127 0" result="hardAlpha"/>
<feOffset dy="4"/>
<feGaussianBlur stdDeviation="2"/>
<feComposite in2="hardAlpha" operator="arithmetic" k2="-1" k3="1"/>
<feColorMatrix type="matrix" values="0 0 0 0 0 0 0 0 0 0 0 0 0 0 0 0 0 0 0.25 0"/>
<feBlend mode="normal" in2="shape" result="effect1_innerShadow"/>
</filter>
<linearGradient id="paint0_linear" x1="153.595" y1="39.2907" x2="153.595" y2="276.231" gradientUnits="userSpaceOnUse">
<stop stop-color="#166570" stop-opacity="0.87"/>
<stop offset="0.889925" stop-color="#5D5D5D"/>
</linearGradient>
<clipPath id="clip0">
<rect width="190" height="142" fill="white" transform="translate(46 66)"/>
</clipPath>
</defs>
</svg>
